<?xml version="1.0" encoding="iso-8859-1"?>
<!-- Generator: Adobe Illustrator 19.0.0, SVG Export Plug-In . SVG Version: 6.00 Build 0)  -->
<svg version="1.1" id="Capa_1" xmlns="http://www.w3.org/2000/svg" xmlns:xlink="http://www.w3.org/1999/xlink" x="0px" y="0px"
	 viewBox="0 0 512.003 512.003" style="enable-background:new 0 0 512.003 512.003;" xml:space="preserve">
<path d="M98.869,512h292.025V85.037H98.869V512z"/>
<g>
	<rect x="146.987" y="299.878" style="fill:#0e0e0e;" width="195.796" height="30.021"/>
	<rect x="146.987" y="353.275" style="fill:#0e0e0e;" width="195.796" height="30.021"/>
	<rect x="146.987" y="406.672" style="fill:#0e0e0e;" width="195.796" height="30.021"/>
</g>
<g>
	<rect x="255.732" y="299.878" style="fill:#0e0e0e;" width="87.047" height="30.021"/>
	<rect x="255.732" y="406.672" style="fill:#0e0e0e;" width="87.047" height="30.021"/>
	<rect x="255.732" y="353.275" style="fill:#0e0e0e;" width="87.047" height="30.021"/>
</g>
<g>
	<path style="fill:#265D77;" d="M143.957,213.427c0-29.044,22.289-49.442,52.684-49.442c18.508,0,33.097,6.755,42.418,18.912
		l-20.128,17.966c-5.539-7.025-12.157-11.078-20.668-11.078c-13.238,0-22.154,9.186-22.154,23.64s8.916,23.64,22.154,23.64
		c8.511,0,15.13-4.053,20.668-11.078l20.128,17.966c-9.321,12.157-23.911,18.912-42.418,18.912
		C166.246,262.869,143.957,242.471,143.957,213.427z"/>
	<path style="fill:#265D77;" d="M349.293,166.146l-39.986,94.562h-31.341l-39.987-94.562h34.312l22.56,55.251l23.101-55.251H349.293
		z"/>
</g>
<polygon style="fill:#0e0e0e;" points="317.953,166.146 294.853,221.398 272.293,166.146 255.732,166.146 255.732,208.127 
	277.967,260.708 309.308,260.708 349.293,166.146 "/>
</svg>
